<svg xmlns="http://www.w3.org/2000/svg" width="58" height="32.166" viewBox="0 0 58 32.166">
  <path id="XMLID_43_" d="M8.216,26.684c-3.325,0-5.934-5.213-5.8-11.543.13-5.585,2.543-10.3,5.542-10.55,3.325-.248,6.064,4.716,6.064,11.046a20.456,20.456,0,0,1-.13,2.11c-.13,1.117-.652,1.862-1.239,1.862h0c-.717,0-1.369,1.117-1.369,2.606H27.06c.391,0,.782-.5.848-1.241.13-1.117-.261-1.986-.848-1.986H16.171a28.875,28.875,0,0,0,.2-3.351H30.32c.456,0,.848-.745.848-1.613s-.391-1.613-.848-1.613H16.236a25.758,25.758,0,0,0-.587-3.351H28.755c.391,0,.782-.5.848-1.241.13-1.117-.261-1.986-.848-1.986H14.606a12.538,12.538,0,0,0-1.369-2.606H23.865c.522,0,.978-.993.848-1.986C24.582.5,24.256,0,23.865,0H8.411C4.173,0,.456,6.082.065,14.149c-.391,9.184,3.391,16.879,8.151,16.879H20.344l2.608-.248c3.325,0,5.934,5.213,5.8,11.543-.13,5.585-2.543,10.3-5.542,10.55-3.325.248-6.064-4.716-6.064-11.046,0-.745.065-1.489.13-2.234.13-1.117.652-1.738,1.239-1.738h0c.717,0,1.369-1.117,1.369-2.606H4.043c-.391,0-.782.5-.848,1.241-.13,1.117.261,1.986.848,1.986H15a28.875,28.875,0,0,0-.2,3.351H.848c-.456,0-.848.745-.848,1.613s.391,1.613.848,1.613H14.932a25.76,25.76,0,0,0,.587,3.351H2.347c-.391,0-.782.5-.848,1.241-.13,1.117.261,1.986.848,1.986H16.562a12.537,12.537,0,0,0,1.369,2.606H7.3c-.391,0-.782.5-.848,1.241-.13,1.117.261,1.986.848,1.986H22.756c4.238,0,7.955-6.082,8.346-14.149.456-9.184-3.391-17-8.151-17H10.107" transform="matrix(0.017, 1, -1, 0.017, 57.456, 0)" fill="#d94141"/>
</svg>
